<svg xmlns="http://www.w3.org/2000/svg" viewBox="0 0 64 64"><rect width="64" height="64" rx="13" fill="#104898"/><svg x="8" y="7" width="48" height="50" viewBox="0 0 1354.000000 1286.000000" preserveAspectRatio="xMidYMid meet" fill="#FAF8F2"><g transform="translate(0.000000,1286.000000) scale(0.100000,-0.100000)"><path d="M2380 12850 c0 -5 14 -10 30 -10 20 0 30 -5 30 -15 0 -8 7 -15 15
-15 8 0 15 -7 15 -15 0 -11 12 -15 45 -15 33 0 45 -4 45 -15 0 -10 10 -15 30
-15 20 0 30 -5 30 -15 0 -10 10 -15 30 -15 20 0 30 -5 30 -15 0 -10 10 -15 30
-15 20 0 30 -5 30 -15 0 -10 10 -15 30 -15 20 0 30 -5 30 -15 0 -8 7 -15 15
-15 8 0 15 -7 15 -15 0 -8 7 -15 15 -15 8 0 15 -7 15 -15 0 -10 10 -15 30 -15
20 0 30 -5 30 -15 0 -10 10 -15 30 -15 20 0 30 -5 30 -15 0 -10 10 -15 30 -15
20 0 30 -5 30 -15 0 -10 10 -15 30 -15 20 0 30 -5 30 -15 0 -10 10 -15 30 -15
20 0 30 -5 30 -15 0 -10 10 -15 30 -15 20 0 30 -5 30 -15 0 -10 10 -15 30 -15
20 0 30 -5 30 -15 0 -11 12 -15 45 -15 33 0 45 -4 45 -15 0 -8 7 -15 15 -15 8
0 15 -7 15 -15 0 -10 10 -15 30 -15 20 0 30 -5 30 -15 0 -10 10 -15 30 -15 20
0 30 -5 30 -15 0 -10 10 -15 30 -15 20 0 30 -5 30 -15 0 -8 7 -15 15 -15 8 0
15 -7 15 -15 0 -10 10 -15 30 -15 20 0 30 -5 30 -15 0 -10 10 -15 30 -15 20 0
30 -5 30 -15 0 -10 10 -15 30 -15 20 0 30 -5 30 -15 0 -10 10 -15 30 -15 20 0
30 -5 30 -15 0 -10 10 -15 30 -15 20 0 30 -5 30 -15 0 -8 7 -15 15 -15 8 0 15
-7 15 -15 0 -11 12 -15 45 -15 33 0 45 -4 45 -15 0 -10 10 -15 30 -15 20 0 30
-5 30 -15 0 -10 10 -15 30 -15 20 0 30 -5 30 -15 0 -10 10 -15 30 -15 20 0 30
-5 30 -15 0 -10 10 -15 30 -15 20 0 30 -5 30 -15 0 -10 10 -15 30 -15 20 0 30
-5 30 -15 0 -13 30 -15 210 -15 180 0 210 -2 210 -15 0 -10 10 -15 30 -15 20
0 30 -5 30 -15 0 -10 10 -15 30 -15 20 0 30 -5 30 -15 0 -10 10 -15 30 -15 20
0 30 -5 30 -15 0 -10 10 -15 30 -15 20 0 30 -5 30 -15 0 -8 7 -15 15 -15 8 0
15 -7 15 -15 0 -10 10 -15 30 -15 20 0 30 -5 30 -15 0 -8 7 -15 15 -15 8 0 15
-7 15 -15 0 -10 10 -15 30 -15 20 0 30 -5 30 -15 0 -10 10 -15 30 -15 20 0 30
-5 30 -15 0 -10 10 -15 30 -15 20 0 30 -5 30 -15 0 -8 7 -15 15 -15 8 0 15 -7
15 -15 0 -10 10 -15 30 -15 20 0 30 -5 30 -15 0 -8 7 -15 15 -15 8 0 15 -7 15
-15 0 -10 10 -15 30 -15 20 0 30 -5 30 -15 0 -10 10 -15 30 -15 20 0 30 -5 30
-15 0 -10 10 -15 30 -15 20 0 30 -5 30 -15 0 -8 7 -15 15 -15 8 0 15 -7 15
-15 0 -10 10 -15 30 -15 20 0 30 -5 30 -15 0 -11 12 -15 45 -15 33 0 45 -4 45
-15 0 -8 7 -15 15 -15 8 0 15 -7 15 -15 0 -10 10 -15 30 -15 20 0 30 -5 30
-15 0 -10 10 -15 30 -15 20 0 30 -5 30 -15 0 -10 10 -15 30 -15 20 0 30 -5 30
-15 0 -10 10 -15 30 -15 20 0 30 -5 30 -15 0 -10 10 -15 30 -15 20 0 30 -5 30
-15 0 -10 10 -15 30 -15 20 0 30 -5 30 -15 0 -8 7 -15 15 -15 8 0 15 -7 15
-15 0 -10 10 -15 30 -15 20 0 30 -5 30 -15 0 -10 10 -15 30 -15 20 0 30 -5 30
-15 0 -10 10 -15 30 -15 20 0 30 -5 30 -15 0 -10 10 -15 30 -15 20 0 30 -5 30
-15 0 -10 10 -15 30 -15 20 0 30 -5 30 -15 0 -8 7 -15 15 -15 8 0 15 -7 15
-15 0 -10 10 -15 30 -15 20 0 30 -5 30 -15 0 -10 10 -15 30 -15 20 0 30 -5 30
-15 0 -8 7 -15 15 -15 8 0 15 -7 15 -15 0 -10 10 -15 30 -15 20 0 30 -5 30
-15 0 -10 10 -15 30 -15 20 0 30 -5 30 -15 0 -10 10 -15 30 -15 20 0 30 -5 30
-15 0 -11 12 -15 45 -15 33 0 45 -4 45 -15 0 -8 7 -15 15 -15 8 0 15 -7 15
-15 0 -10 10 -15 30 -15 20 0 30 -5 30 -15 0 -8 7 -15 15 -15 8 0 15 -7 15
-15 0 -10 10 -15 30 -15 20 0 30 -5 30 -15 0 -10 10 -15 30 -15 20 0 30 -5 30
-15 0 -10 10 -15 30 -15 20 0 30 -5 30 -15 0 -8 7 -15 15 -15 8 0 15 -7 15
-15 0 -10 10 -15 30 -15 20 0 30 -5 30 -15 0 -10 10 -15 30 -15 20 0 30 -5 30
-15 0 -10 10 -15 30 -15 20 0 30 -5 30 -15 0 -8 7 -15 15 -15 8 0 15 -7 15
-15 0 -8 7 -15 15 -15 8 0 15 -7 15 -15 0 -10 10 -15 30 -15 20 0 30 -5 30
-15 0 -8 7 -15 15 -15 10 0 15 -10 15 -30 0 -20 -5 -30 -15 -30 -8 0 -15 -7
-15 -15 0 -8 -7 -15 -15 -15 -10 0 -15 -10 -15 -30 0 -20 -5 -30 -15 -30 -11
0 -15 -12 -15 -45 0 -33 -4 -45 -15 -45 -12 0 -15 -15 -15 -75 0 -60 -3 -75
-15 -75 -13 0 -15 -22 -15 -135 0 -113 -2 -135 -15 -135 -10 0 -15 -10 -15
-30 0 -20 5 -30 15 -30 8 0 15 -7 15 -15 0 -8 -7 -15 -15 -15 -12 0 -15 -20
-15 -120 0 -100 -2 -120 -15 -120 -10 0 -15 -10 -15 -30 0 -20 5 -30 15 -30
12 0 15 -13 15 -60 0 -47 -3 -60 -15 -60 -12 0 -15 -17 -15 -90 0 -73 -3 -90
-15 -90 -12 0 -15 -17 -15 -90 0 -73 -3 -90 -15 -90 -10 0 -15 -10 -15 -30 0
-20 -5 -30 -15 -30 -8 0 -15 -7 -15 -15 0 -8 -7 -15 -15 -15 -10 0 -15 -10
-15 -30 0 -20 -5 -30 -15 -30 -8 0 -15 -7 -15 -15 0 -8 -7 -15 -15 -15 -10 0
-15 -10 -15 -30 0 -20 -5 -30 -15 -30 -8 0 -15 -7 -15 -15 0 -8 -7 -15 -15
-15 -10 0 -15 -10 -15 -30 0 -20 -5 -30 -15 -30 -10 0 -15 -10 -15 -30 0 -20
-5 -30 -15 -30 -11 0 -15 -12 -15 -45 0 -33 -4 -45 -15 -45 -13 0 -15 -32 -15
-225 0 -193 -2 -225 -15 -225 -12 0 -15 -17 -15 -90 0 -73 -3 -90 -15 -90 -12
0 -15 -13 -15 -60 0 -47 -3 -60 -15 -60 -12 0 -15 -15 -15 -75 0 -60 -3 -75
-15 -75 -11 0 -15 -12 -15 -45 0 -33 -4 -45 -15 -45 -10 0 -15 -10 -15 -30 0
-20 -5 -30 -15 -30 -11 0 -15 -12 -15 -45 0 -33 -4 -45 -15 -45 -10 0 -15 -10
-15 -30 0 -20 -5 -30 -15 -30 -11 0 -15 -12 -15 -45 0 -33 -4 -45 -15 -45 -10
0 -15 -10 -15 -30 0 -20 -5 -30 -15 -30 -12 0 -15 -13 -15 -60 0 -47 -3 -60
-15 -60 -12 0 -15 -15 -15 -75 0 -60 -3 -75 -15 -75 -12 0 -15 -17 -15 -90 0
-73 -3 -90 -15 -90 -12 0 -15 -18 -15 -105 0 -87 -3 -105 -15 -105 -12 0 -15
-18 -15 -105 0 -87 -3 -105 -15 -105 -11 0 -15 -12 -15 -45 0 -33 -4 -45 -15
-45 -10 0 -15 -10 -15 -30 0 -20 -5 -30 -15 -30 -10 0 -15 -10 -15 -30 0 -20
-5 -30 -15 -30 -8 0 -15 -7 -15 -15 0 -8 -7 -15 -15 -15 -10 0 -15 -10 -15
-30 0 -20 -5 -30 -15 -30 -10 0 -15 -10 -15 -30 0 -20 -5 -30 -15 -30 -8 0
-15 -7 -15 -15 0 -8 -7 -15 -15 -15 -10 0 -15 -10 -15 -30 0 -20 -5 -30 -15
-30 -8 0 -15 -7 -15 -15 0 -8 -7 -15 -15 -15 -8 0 -15 -7 -15 -15 0 -8 -7 -15
-15 -15 -11 0 -15 -12 -15 -45 0 -33 -4 -45 -15 -45 -11 0 -15 -12 -15 -45 0
-33 -4 -45 -15 -45 -10 0 -15 -10 -15 -30 0 -20 -5 -30 -15 -30 -11 0 -15 -12
-15 -45 0 -33 -4 -45 -15 -45 -12 0 -15 -13 -15 -60 0 -47 -3 -60 -15 -60 -11
0 -15 -12 -15 -45 0 -33 -4 -45 -15 -45 -12 0 -15 -13 -15 -60 0 -47 -3 -60
-15 -60 -10 0 -15 -10 -15 -30 0 -20 -5 -30 -15 -30 -10 0 -15 -10 -15 -30 0
-20 -5 -30 -15 -30 -10 0 -15 -10 -15 -30 0 -20 -5 -30 -15 -30 -10 0 -15 -10
-15 -30 0 -20 -5 -30 -15 -30 -10 0 -15 -10 -15 -30 0 -20 -5 -30 -15 -30 -10
0 -15 -10 -15 -30 0 -20 -5 -30 -15 -30 -10 0 -15 -10 -15 -30 0 -20 -5 -30
-15 -30 -10 0 -15 -10 -15 -30 0 -20 -5 -30 -15 -30 -10 0 -15 -10 -15 -30 0
-20 -5 -30 -15 -30 -11 0 -15 -12 -15 -45 0 -33 -4 -45 -15 -45 -12 0 -15 -13
-15 -60 0 -47 -3 -60 -15 -60 -12 0 -15 -13 -15 -60 0 -47 -3 -60 -15 -60 -11
0 -15 -12 -15 -45 0 -33 -4 -45 -15 -45 -12 0 -15 -13 -15 -60 0 -47 -3 -60
-15 -60 -11 0 -15 -12 -15 -45 0 -33 -4 -45 -15 -45 -10 0 -15 -10 -15 -30 0
-20 -5 -30 -15 -30 -12 0 -15 -13 -15 -60 0 -47 -3 -60 -15 -60 -11 0 -15 -12
-15 -45 0 -33 -4 -45 -15 -45 -12 0 -15 -13 -15 -60 0 -47 -3 -60 -15 -60 -10
0 -15 -10 -15 -30 0 -20 -5 -30 -15 -30 -11 0 -15 -12 -15 -45 0 -33 -4 -45
-15 -45 -10 0 -15 -10 -15 -30 0 -20 -5 -30 -15 -30 -10 0 -15 -10 -15 -30 0
-20 -5 -30 -15 -30 -10 0 -15 -10 -15 -30 0 -20 -5 -30 -15 -30 -11 0 -15 -12
-15 -45 0 -33 -4 -45 -15 -45 -10 0 -15 -10 -15 -30 0 -20 -5 -30 -15 -30 -10
0 -15 -10 -15 -30 0 -20 -5 -30 -15 -30 -10 0 -15 -10 -15 -30 0 -20 -5 -30
-15 -30 -10 0 -15 -10 -15 -30 0 -20 -5 -30 -15 -30 -11 0 -15 -12 -15 -45 0
-33 -4 -45 -15 -45 -11 0 -15 -12 -15 -45 0 -33 -4 -45 -15 -45 -10 0 -15 -10
-15 -30 0 -20 -5 -30 -15 -30 -10 0 -15 -10 -15 -30 0 -20 -5 -30 -15 -30 -10
0 -15 -10 -15 -30 0 -20 -5 -30 -15 -30 -10 0 -15 -10 -15 -30 0 -20 -5 -30
-15 -30 -10 0 -15 -10 -15 -30 0 -20 -5 -30 -15 -30 -8 0 -15 -7 -15 -15 0 -8
-7 -15 -15 -15 -10 0 -15 -10 -15 -30 0 -20 -5 -30 -15 -30 -10 0 -15 -10 -15
-30 0 -20 -5 -30 -15 -30 -10 0 -15 -10 -15 -30 0 -20 -5 -30 -15 -30 -8 0
-15 -7 -15 -15 0 -8 -7 -15 -15 -15 -10 0 -15 -10 -15 -30 0 -20 -5 -30 -15
-30 -10 0 -15 -10 -15 -30 0 -20 -5 -30 -15 -30 -8 0 -15 -7 -15 -15 0 -8 -7
-15 -15 -15 -10 0 -15 -10 -15 -30 0 -20 -5 -30 -15 -30 -10 0 -15 -10 -15
-30 0 -20 5 -30 15 -30 10 0 15 -10 15 -30 0 -20 5 -30 15 -30 10 0 15 -10 15
-30 0 -20 5 -30 15 -30 8 0 15 -7 15 -15 0 -8 7 -15 15 -15 8 0 15 -7 15 -15
0 -8 7 -15 15 -15 10 0 15 -10 15 -30 0 -20 5 -30 15 -30 12 0 15 -13 15 -60
0 -47 -3 -60 -15 -60 -8 0 -15 -7 -15 -15 0 -8 -7 -15 -15 -15 -8 0 -15 -7
-15 -15 0 -12 -17 -15 -90 -15 -73 0 -90 -3 -90 -15 0 -12 -17 -15 -90 -15
-73 0 -90 -3 -90 -15 0 -12 -18 -15 -105 -15 -87 0 -105 -3 -105 -15 0 -12
-17 -15 -90 -15 -73 0 -90 -3 -90 -15 0 -12 -18 -15 -105 -15 -87 0 -105 -3
-105 -15 0 -12 -13 -15 -60 -15 -47 0 -60 -3 -60 -15 0 -12 -17 -15 -90 -15
-73 0 -90 -3 -90 -15 0 -12 -18 -15 -105 -15 -87 0 -105 -3 -105 -15 0 -13
-23 -15 -150 -15 -127 0 -150 -2 -150 -15 0 -13 -25 -15 -165 -15 -140 0 -165
-2 -165 -15 0 -13 -25 -15 -165 -15 -140 0 -165 -2 -165 -15 0 -13 -28 -15
-195 -15 -167 0 -195 -2 -195 -15 0 -13 -28 -15 -195 -15 -167 0 -195 -2 -195
-15 0 -12 -15 -15 -75 -15 -60 0 -75 -3 -75 -15 0 -12 -17 -15 -90 -15 -73 0
-90 -3 -90 -15 0 -12 -17 -15 -90 -15 -73 0 -90 -3 -90 -15 0 -12 -17 -15 -90
-15 -73 0 -90 -3 -90 -15 0 -13 -25 -15 -165 -15 -140 0 -165 -2 -165 -15 0
-12 -13 -15 -60 -15 -47 0 -60 -3 -60 -15 0 -11 -12 -15 -45 -15 -33 0 -45 -4
-45 -15 0 -8 -7 -15 -15 -15 -8 0 -15 -7 -15 -15 0 -8 7 -15 15 -15 8 0 15 -7
15 -15 0 -10 10 -15 30 -15 20 0 30 -5 30 -15 0 -10 10 -15 30 -15 20 0 30 -5
30 -15 0 -13 32 -15 225 -15 193 0 225 2 225 15 0 13 30 15 210 15 180 0 210
2 210 15 0 10 10 15 30 15 20 0 30 -5 30 -15 0 -11 12 -15 45 -15 33 0 45 4
45 15 0 13 25 15 165 15 140 0 165 2 165 15 0 13 28 15 195 15 167 0 195 2
195 15 0 13 28 15 195 15 167 0 195 2 195 15 0 13 35 15 255 15 220 0 255 2
255 15 0 13 33 15 240 15 207 0 240 2 240 15 0 13 20 15 120 15 100 0 120 3
120 15 0 13 72 15 585 15 513 0 585 2 585 15 0 12 17 15 90 15 73 0 90 3 90
15 0 13 35 15 255 15 220 0 255 2 255 15 0 13 87 15 720 15 633 0 720 2 720
15 0 13 47 15 360 15 313 0 360 -2 360 -15 0 -13 32 -15 225 -15 193 0 225 2
225 15 0 13 22 15 135 15 113 0 135 -2 135 -15 0 -13 23 -15 150 -15 127 0
150 2 150 15 0 13 37 15 270 15 233 0 270 2 270 15 0 13 22 15 135 15 113 0
135 2 135 15 0 12 13 15 60 15 47 0 60 3 60 15 0 10 10 15 30 15 20 0 30 5 30
15 0 8 7 15 15 15 8 0 15 7 15 15 0 8 7 15 15 15 11 0 15 12 15 45 0 43 -1 45
-30 45 -20 0 -30 5 -30 15 0 10 -10 15 -30 15 -20 0 -30 5 -30 15 0 13 -23 15
-150 15 -127 0 -150 2 -150 15 0 12 -15 15 -75 15 -60 0 -75 3 -75 15 0 11
-12 15 -45 15 -33 0 -45 4 -45 15 0 8 -7 15 -15 15 -8 0 -15 7 -15 15 0 8 -7
15 -15 15 -10 0 -15 10 -15 30 0 20 -5 30 -15 30 -8 0 -15 7 -15 15 0 8 -7 15
-15 15 -8 0 -15 7 -15 15 0 8 -7 15 -15 15 -8 0 -15 7 -15 15 0 8 -7 15 -15
15 -10 0 -15 10 -15 30 0 20 -5 30 -15 30 -10 0 -15 10 -15 30 0 20 -5 30 -15
30 -10 0 -15 10 -15 30 0 20 -5 30 -15 30 -11 0 -15 12 -15 45 0 33 -4 45 -15
45 -10 0 -15 10 -15 30 0 20 -5 30 -15 30 -11 0 -15 12 -15 45 0 33 -4 45 -15
45 -11 0 -15 12 -15 45 0 33 -4 45 -15 45 -12 0 -15 13 -15 60 0 47 -3 60 -15
60 -10 0 -15 10 -15 30 0 20 -5 30 -15 30 -10 0 -15 10 -15 30 0 20 -5 30 -15
30 -11 0 -15 12 -15 45 0 33 -4 45 -15 45 -10 0 -15 10 -15 30 0 20 -5 30 -15
30 -12 0 -15 13 -15 60 0 47 -3 60 -15 60 -11 0 -15 12 -15 45 0 33 -4 45 -15
45 -11 0 -15 12 -15 45 0 33 -4 45 -15 45 -12 0 -15 17 -15 90 0 73 -3 90 -15
90 -12 0 -15 17 -15 90 0 73 -3 90 -15 90 -13 0 -15 23 -15 150 0 127 -2 150
-15 150 -11 0 -15 12 -15 45 0 33 -4 45 -15 45 -11 0 -15 12 -15 45 0 33 -4
45 -15 45 -8 0 -15 7 -15 15 0 8 -7 15 -15 15 -11 0 -15 12 -15 45 0 33 -4 45
-15 45 -12 0 -15 13 -15 60 0 47 -3 60 -15 60 -12 0 -15 13 -15 60 0 47 -3 60
-15 60 -11 0 -15 12 -15 45 0 33 -4 45 -15 45 -10 0 -15 10 -15 30 0 20 -5 30
-15 30 -12 0 -15 13 -15 60 0 47 -3 60 -15 60 -11 0 -15 12 -15 45 0 33 -4 45
-15 45 -12 0 -15 13 -15 60 0 47 -3 60 -15 60 -12 0 -15 13 -15 60 0 47 -3 60
-15 60 -10 0 -15 10 -15 30 0 20 -5 30 -15 30 -12 0 -15 13 -15 60 0 47 -3 60
-15 60 -12 0 -15 13 -15 60 0 47 -3 60 -15 60 -12 0 -15 15 -15 75 0 60 -3 75
-15 75 -11 0 -15 12 -15 45 0 33 -4 45 -15 45 -12 0 -15 13 -15 60 0 47 -3 60
-15 60 -12 0 -15 13 -15 60 0 47 -3 60 -15 60 -11 0 -15 12 -15 45 0 33 -4 45
-15 45 -11 0 -15 12 -15 45 0 33 -4 45 -15 45 -12 0 -15 15 -15 75 0 60 -3 75
-15 75 -12 0 -15 15 -15 75 0 60 -3 75 -15 75 -11 0 -15 12 -15 45 0 33 -4 45
-15 45 -11 0 -15 12 -15 45 0 33 -4 45 -15 45 -10 0 -15 10 -15 30 0 20 -5 30
-15 30 -12 0 -15 13 -15 60 0 47 -3 60 -15 60 -11 0 -15 12 -15 45 0 33 -4 45
-15 45 -11 0 -15 12 -15 45 0 33 -4 45 -15 45 -11 0 -15 12 -15 45 0 33 -4 45
-15 45 -10 0 -15 10 -15 30 0 20 -5 30 -15 30 -12 0 -15 13 -15 60 0 47 -3 60
-15 60 -12 0 -15 13 -15 60 0 47 -3 60 -15 60 -13 0 -15 22 -15 135 0 113 -2
135 -15 135 -13 0 -15 53 -15 420 0 367 2 420 15 420 10 0 15 10 15 30 0 20 5
30 15 30 10 0 15 10 15 30 0 20 5 30 15 30 11 0 15 12 15 45 0 33 4 45 15 45
10 0 15 10 15 30 0 20 5 30 15 30 11 0 15 12 15 45 0 33 4 45 15 45 8 0 15 7
15 15 0 8 7 15 15 15 11 0 15 12 15 45 0 33 4 45 15 45 10 0 15 10 15 30 0 20
5 30 15 30 10 0 15 10 15 30 0 20 5 30 15 30 8 0 15 7 15 15 0 8 7 15 15 15
10 0 15 10 15 30 0 27 3 30 30 30 27 0 30 3 30 30 0 27 3 30 30 30 20 0 30 5
30 15 0 8 7 15 15 15 10 0 15 10 15 30 0 20 5 30 15 30 8 0 15 7 15 15 0 8 7
15 15 15 8 0 15 7 15 15 0 8 7 15 15 15 10 0 15 10 15 30 0 20 5 30 15 30 8 0
15 7 15 15 0 8 7 15 15 15 8 0 15 7 15 15 0 8 7 15 15 15 10 0 15 10 15 30 0
20 5 30 15 30 8 0 15 7 15 15 0 8 7 15 15 15 8 0 15 7 15 15 0 8 7 15 15 15
10 0 15 10 15 30 0 20 5 30 15 30 8 0 15 7 15 15 0 8 7 15 15 15 10 0 15 10
15 30 0 20 5 30 15 30 8 0 15 7 15 15 0 8 7 15 15 15 8 0 15 7 15 15 0 8 7 15
15 15 8 0 15 7 15 15 0 8 7 15 15 15 10 0 15 10 15 30 0 20 5 30 15 30 8 0 15
7 15 15 0 8 7 15 15 15 10 0 15 10 15 30 0 20 5 30 15 30 8 0 15 7 15 15 0 8
7 15 15 15 10 0 15 10 15 30 0 20 5 30 15 30 8 0 15 7 15 15 0 8 7 15 15 15
10 0 15 10 15 30 0 27 3 30 30 30 27 0 30 3 30 30 0 27 3 30 30 30 20 0 30 5
30 15 0 8 7 15 15 15 8 0 15 -7 15 -15 0 -8 7 -15 15 -15 8 0 15 -7 15 -15 0
-10 10 -15 30 -15 20 0 30 -5 30 -15 0 -10 10 -15 30 -15 20 0 30 -5 30 -15 0
-10 10 -15 30 -15 20 0 30 -5 30 -15 0 -10 10 -15 30 -15 20 0 30 -5 30 -15 0
-10 10 -15 30 -15 20 0 30 -5 30 -15 0 -10 10 -15 30 -15 20 0 30 -5 30 -15 0
-10 10 -15 30 -15 20 0 30 -5 30 -15 0 -10 10 -15 30 -15 20 0 30 -5 30 -15 0
-10 10 -15 30 -15 20 0 30 -5 30 -15 0 -10 10 -15 30 -15 20 0 30 -5 30 -15 0
-10 10 -15 30 -15 20 0 30 -5 30 -15 0 -10 10 -15 30 -15 20 0 30 -5 30 -15 0
-8 7 -15 15 -15 8 0 15 -7 15 -15 0 -10 10 -15 30 -15 20 0 30 -5 30 -15 0
-10 10 -15 30 -15 20 0 30 -5 30 -15 0 -10 10 -15 30 -15 20 0 30 -5 30 -15 0
-10 10 -15 30 -15 20 0 30 -5 30 -15 0 -10 10 -15 30 -15 20 0 30 -5 30 -15 0
-10 10 -15 30 -15 20 0 30 -5 30 -15 0 -8 7 -15 15 -15 8 0 15 -7 15 -15 0
-10 10 -15 30 -15 20 0 30 -5 30 -15 0 -10 10 -15 30 -15 20 0 30 -5 30 -15 0
-10 10 -15 30 -15 20 0 30 -5 30 -15 0 -8 7 -15 15 -15 8 0 15 -7 15 -15 0
-10 10 -15 30 -15 20 0 30 -5 30 -15 0 -10 10 -15 30 -15 20 0 30 -5 30 -15 0
-10 10 -15 30 -15 20 0 30 -5 30 -15 0 -10 10 -15 30 -15 20 0 30 -5 30 -15 0
-8 7 -15 15 -15 8 0 15 -7 15 -15 0 -10 10 -15 30 -15 20 0 30 -5 30 -15 0
-10 10 -15 30 -15 20 0 30 -5 30 -15 0 -10 10 -15 30 -15 20 0 30 -5 30 -15 0
-8 7 -15 15 -15 8 0 15 -7 15 -15 0 -10 10 -15 30 -15 20 0 30 -5 30 -15 0
-10 10 -15 30 -15 20 0 30 -5 30 -15 0 -11 12 -15 45 -15 33 0 45 -4 45 -15 0
-10 10 -15 30 -15 20 0 30 -5 30 -15 0 -10 10 -15 30 -15 20 0 30 -5 30 -15 0
-10 10 -15 30 -15 20 0 30 -5 30 -15 0 -10 10 -15 30 -15 20 0 30 -5 30 -15 0
-10 10 -15 30 -15 20 0 30 -5 30 -15 0 -10 10 -15 30 -15 20 0 30 -5 30 -15 0
-10 10 -15 30 -15 20 0 30 -5 30 -15 0 -10 10 -15 30 -15 20 0 30 -5 30 -15 0
-10 10 -15 30 -15 20 0 30 -5 30 -15 0 -10 10 -15 30 -15 20 0 30 -5 30 -15 0
-10 10 -15 30 -15 20 0 30 -5 30 -15 0 -8 7 -15 15 -15 8 0 15 -7 15 -15 0
-12 13 -15 60 -15 47 0 60 -3 60 -15 0 -8 7 -15 15 -15 8 0 15 -7 15 -15 0
-10 10 -15 30 -15 20 0 30 -5 30 -15 0 -10 10 -15 30 -15 20 0 30 -5 30 -15 0
-10 10 -15 30 -15 20 0 30 -5 30 -15 0 -10 10 -15 30 -15 20 0 30 -5 30 -15 0
-10 10 -15 30 -15 20 0 30 -5 30 -15 0 -10 10 -15 30 -15 20 0 30 -5 30 -15 0
-10 10 -15 30 -15 20 0 30 -5 30 -15 0 -10 10 -15 30 -15 20 0 30 -5 30 -15 0
-10 10 -15 30 -15 20 0 30 -5 30 -15 0 -11 12 -15 45 -15 33 0 45 -4 45 -15 0
-10 10 -15 30 -15 20 0 30 -5 30 -15 0 -11 12 -15 45 -15 33 0 45 -4 45 -15 0
-8 7 -15 15 -15 8 0 15 -7 15 -15 0 -10 10 -15 30 -15 20 0 30 -5 30 -15 0
-10 10 -15 30 -15 20 0 30 -5 30 -15 0 -10 10 -15 30 -15 20 0 30 -5 30 -15 0
-11 12 -15 45 -15 33 0 45 -4 45 -15 0 -10 10 -15 30 -15 20 0 30 -5 30 -15 0
-11 12 -15 45 -15 33 0 45 -4 45 -15 0 -11 12 -15 45 -15 33 0 45 4 45 15 0 8
7 15 15 15 10 0 15 10 15 30 0 20 -5 30 -15 30 -8 0 -15 7 -15 15 0 8 -7 15
-15 15 -8 0 -15 7 -15 15 0 10 -10 15 -30 15 -20 0 -30 5 -30 15 0 8 -7 15
-15 15 -8 0 -15 7 -15 15 0 10 -10 15 -30 15 -20 0 -30 5 -30 15 0 11 -12 15
-45 15 -33 0 -45 4 -45 15 0 8 -7 15 -15 15 -8 0 -15 7 -15 15 0 10 -10 15
-30 15 -20 0 -30 5 -30 15 0 10 -10 15 -30 15 -20 0 -30 5 -30 15 0 10 -10 15
-30 15 -20 0 -30 5 -30 15 0 10 -10 15 -30 15 -20 0 -30 5 -30 15 0 11 -12 15
-45 15 -33 0 -45 4 -45 15 0 8 -7 15 -15 15 -8 0 -15 7 -15 15 0 11 -12 15
-45 15 -33 0 -45 4 -45 15 0 10 -10 15 -30 15 -20 0 -30 5 -30 15 0 10 -10 15
-30 15 -20 0 -30 5 -30 15 0 10 -10 15 -30 15 -20 0 -30 5 -30 15 0 10 -10 15
-30 15 -20 0 -30 5 -30 15 0 10 -10 15 -30 15 -20 0 -30 5 -30 15 0 10 -10 15
-30 15 -20 0 -30 5 -30 15 0 8 -7 15 -15 15 -8 0 -15 7 -15 15 0 11 -12 15
-45 15 -33 0 -45 4 -45 15 0 10 -10 15 -30 15 -20 0 -30 5 -30 15 0 10 -10 15
-30 15 -20 0 -30 5 -30 15 0 10 -10 15 -30 15 -20 0 -30 5 -30 15 0 10 -10 15
-30 15 -20 0 -30 5 -30 15 0 10 -10 15 -30 15 -20 0 -30 5 -30 15 0 10 -10 15
-30 15 -20 0 -30 5 -30 15 0 10 -10 15 -30 15 -20 0 -30 5 -30 15 0 10 -10 15
-30 15 -20 0 -30 5 -30 15 0 10 -10 15 -30 15 -20 0 -30 5 -30 15 0 10 -10 15
-30 15 -20 0 -30 5 -30 15 0 10 -10 15 -30 15 -20 0 -30 5 -30 15 0 10 -10 15
-30 15 -20 0 -30 5 -30 15 0 10 -10 15 -30 15 -20 0 -30 5 -30 15 0 8 -7 15
-15 15 -8 0 -15 7 -15 15 0 10 -10 15 -30 15 -20 0 -30 5 -30 15 0 11 -12 15
-45 15 -33 0 -45 4 -45 15 0 10 -10 15 -30 15 -20 0 -30 5 -30 15 0 8 -7 15
-15 15 -8 0 -15 7 -15 15 0 10 -10 15 -30 15 -20 0 -30 5 -30 15 0 11 -12 15
-45 15 -33 0 -45 4 -45 15 0 10 -10 15 -30 15 -20 0 -30 5 -30 15 0 10 -10 15
-30 15 -20 0 -30 5 -30 15 0 8 -7 15 -15 15 -8 0 -15 7 -15 15 0 10 -10 15
-30 15 -20 0 -30 5 -30 15 0 10 -10 15 -30 15 -20 0 -30 5 -30 15 0 10 -10 15
-30 15 -20 0 -30 5 -30 15 0 10 -10 15 -30 15 -20 0 -30 5 -30 15 0 8 -7 15
-15 15 -8 0 -15 7 -15 15 0 10 -10 15 -30 15 -20 0 -30 5 -30 15 0 10 -10 15
-30 15 -20 0 -30 5 -30 15 0 10 -10 15 -30 15 -20 0 -30 5 -30 15 0 8 -7 15
-15 15 -8 0 -15 7 -15 15 0 8 -7 15 -15 15 -8 0 -15 7 -15 15 0 10 -10 15 -30
15 -20 0 -30 5 -30 15 0 8 -7 15 -15 15 -8 0 -15 7 -15 15 0 10 -10 15 -30 15
-20 0 -30 5 -30 15 0 10 -10 15 -30 15 -20 0 -30 5 -30 15 0 10 -10 15 -30 15
-20 0 -30 5 -30 15 0 10 -10 15 -30 15 -20 0 -30 5 -30 15 0 10 -10 15 -30 15
-20 0 -30 5 -30 15 0 10 -10 15 -30 15 -20 0 -30 5 -30 15 0 10 -10 15 -30 15
-20 0 -30 5 -30 15 0 10 -10 15 -30 15 -20 0 -30 5 -30 15 0 10 -10 15 -30 15
-20 0 -30 5 -30 15 0 8 -7 15 -15 15 -8 0 -15 7 -15 15 0 10 -10 15 -30 15
-20 0 -30 5 -30 15 0 10 -10 15 -30 15 -20 0 -30 5 -30 15 0 8 -7 15 -15 15
-8 0 -15 7 -15 15 0 10 -10 15 -30 15 -20 0 -30 5 -30 15 0 8 -7 15 -15 15 -8
0 -15 7 -15 15 0 10 -10 15 -30 15 -20 0 -30 5 -30 15 0 8 -7 15 -15 15 -8 0
-15 7 -15 15 0 8 -7 15 -15 15 -8 0 -15 7 -15 15 0 10 -10 15 -30 15 -20 0
-30 5 -30 15 0 10 -10 15 -30 15 -27 0 -30 3 -30 30 0 20 -5 30 -15 30 -8 0
-15 7 -15 15 0 8 -7 15 -15 15 -8 0 -15 7 -15 15 0 10 -10 15 -30 15 -20 0
-30 5 -30 15 0 8 -7 15 -15 15 -8 0 -15 7 -15 15 0 12 -17 15 -90 15 -73 0
-90 3 -90 15 0 8 -7 15 -15 15 -8 0 -15 7 -15 15 0 10 -10 15 -30 15 -20 0
-30 5 -30 15 0 10 -10 15 -30 15 -20 0 -30 5 -30 15 0 8 -7 15 -15 15 -8 0
-15 7 -15 15 0 11 -12 15 -45 15 -33 0 -45 4 -45 15 0 8 -7 15 -15 15 -8 0
-15 7 -15 15 0 10 -10 15 -30 15 -20 0 -30 5 -30 15 0 8 -7 15 -15 15 -8 0
-15 7 -15 15 0 8 7 15 15 15 11 0 15 12 15 45 0 33 4 45 15 45 10 0 15 10 15
30 0 20 5 30 15 30 8 0 15 7 15 15 0 12 13 15 60 15 47 0 60 3 60 15 0 12 15
15 75 15 60 0 75 3 75 15 0 8 7 15 15 15 10 0 15 10 15 30 0 20 5 30 15 30 12
0 15 18 15 105 0 87 3 105 15 105 13 0 15 20 15 120 0 100 -2 120 -15 120 -11
0 -15 12 -15 45 0 33 -4 45 -15 45 -12 0 -15 17 -15 90 0 73 -3 90 -15 90 -10
0 -15 10 -15 30 0 20 -5 30 -15 30 -10 0 -15 10 -15 30 0 20 -5 30 -15 30 -10
0 -15 10 -15 30 0 20 -5 30 -15 30 -8 0 -15 7 -15 15 0 8 -7 15 -15 15 -8 0
-15 7 -15 15 0 8 -7 15 -15 15 -8 0 -15 7 -15 15 0 11 -12 15 -45 15 -33 0
-45 4 -45 15 0 12 -13 15 -60 15 -47 0 -60 -3 -60 -15 0 -10 -10 -15 -30 -15
-20 0 -30 -5 -30 -15 0 -10 -10 -15 -30 -15 -20 0 -30 -5 -30 -15 0 -8 -7 -15
-15 -15 -8 0 -15 -7 -15 -15 0 -8 -7 -15 -15 -15 -8 0 -15 -7 -15 -15 0 -8 -7
-15 -15 -15 -10 0 -15 -10 -15 -30 0 -20 -5 -30 -15 -30 -12 0 -15 -17 -15
-90 0 -73 -3 -90 -15 -90 -10 0 -15 -10 -15 -30 0 -20 5 -30 15 -30 12 0 15
-15 15 -75 0 -60 3 -75 15 -75 11 0 15 -12 15 -45 0 -33 4 -45 15 -45 10 0 15
-10 15 -30 0 -20 5 -30 15 -30 12 0 15 -15 15 -75 0 -60 3 -75 15 -75 8 0 15
-7 15 -15 0 -8 -7 -15 -15 -15 -10 0 -15 -10 -15 -30 0 -20 -5 -30 -15 -30
-10 0 -15 -10 -15 -30 0 -20 -5 -30 -15 -30 -8 0 -15 -7 -15 -15 0 -8 -7 -15
-15 -15 -8 0 -15 -7 -15 -15 0 -8 -7 -15 -15 -15 -8 0 -15 -7 -15 -15 0 -8 -7
-15 -15 -15 -8 0 -15 -7 -15 -15 0 -10 -10 -15 -30 -15 -20 0 -30 5 -30 15 0
10 -10 15 -30 15 -20 0 -30 5 -30 15 0 8 -7 15 -15 15 -8 0 -15 7 -15 15 0 10
-10 15 -30 15 -20 0 -30 5 -30 15 0 10 -10 15 -30 15 -20 0 -30 5 -30 15 0 8
-7 15 -15 15 -8 0 -15 7 -15 15 0 10 -10 15 -30 15 -20 0 -30 5 -30 15 0 8 -7
15 -15 15 -8 0 -15 7 -15 15 0 10 -10 15 -30 15 -20 0 -30 5 -30 15 0 10 -10
15 -30 15 -20 0 -30 5 -30 15 0 10 -10 15 -30 15 -20 0 -30 5 -30 15 0 10 -10
15 -30 15 -20 0 -30 5 -30 15 0 10 -10 15 -30 15 -20 0 -30 5 -30 15 0 10 -10
15 -30 15 -20 0 -30 5 -30 15 0 8 -7 15 -15 15 -8 0 -15 7 -15 15 0 10 -10 15
-30 15 -20 0 -30 5 -30 15 0 11 -12 15 -45 15 -33 0 -45 4 -45 15 0 8 -7 15
-15 15 -8 0 -15 7 -15 15 0 10 -10 15 -30 15 -20 0 -30 5 -30 15 0 10 -10 15
-30 15 -20 0 -30 5 -30 15 0 10 -10 15 -30 15 -20 0 -30 5 -30 15 0 8 -7 15
-15 15 -8 0 -15 7 -15 15 0 11 -12 15 -45 15 -33 0 -45 4 -45 15 0 10 -10 15
-30 15 -20 0 -30 5 -30 15 0 8 -7 15 -15 15 -8 0 -15 7 -15 15 0 10 -10 15
-30 15 -20 0 -30 5 -30 15 0 10 -10 15 -30 15 -20 0 -30 5 -30 15 0 8 -7 15
-15 15 -8 0 -15 7 -15 15 0 10 -10 15 -30 15 -20 0 -30 5 -30 15 0 10 -10 15
-30 15 -20 0 -30 5 -30 15 0 10 -10 15 -30 15 -20 0 -30 5 -30 15 0 11 -12 15
-45 15 -33 0 -45 4 -45 15 0 10 -10 15 -30 15 -20 0 -30 5 -30 15 0 10 -10 15
-30 15 -20 0 -30 5 -30 15 0 10 -10 15 -30 15 -20 0 -30 5 -30 15 0 8 -7 15
-15 15 -8 0 -15 7 -15 15 0 10 -10 15 -30 15 -20 0 -30 5 -30 15 0 10 -10 15
-30 15 -20 0 -30 5 -30 15 0 8 -7 15 -15 15 -8 0 -15 7 -15 15 0 10 -10 15
-30 15 -20 0 -30 5 -30 15 0 10 -10 15 -30 15 -20 0 -30 5 -30 15 0 10 -10 15
-30 15 -20 0 -30 5 -30 15 0 10 -10 15 -30 15 -20 0 -30 5 -30 15 0 10 -10 15
-30 15 -20 0 -30 5 -30 15 0 8 -7 15 -15 15 -8 0 -15 7 -15 15 0 10 -10 15
-30 15 -20 0 -30 5 -30 15 0 10 -10 15 -30 15 -20 0 -30 5 -30 15 0 10 -10 15
-30 15 -20 0 -30 5 -30 15 0 8 -7 15 -15 15 -8 0 -15 7 -15 15 0 10 -10 15
-30 15 -20 0 -30 5 -30 15 0 8 -7 15 -15 15 -8 0 -15 7 -15 15 0 10 -10 15
-30 15 -20 0 -30 5 -30 15 0 8 -7 15 -15 15 -8 0 -15 7 -15 15 0 10 -10 15
-30 15 -20 0 -30 5 -30 15 0 8 -7 15 -15 15 -8 0 -15 7 -15 15 0 8 -7 15 -15
15 -8 0 -15 7 -15 15 0 8 -7 15 -15 15 -8 0 -15 7 -15 15 0 10 -10 15 -30 15
-20 0 -30 5 -30 15 0 8 -7 15 -15 15 -8 0 -15 7 -15 15 0 8 -7 15 -15 15 -8 0
-15 7 -15 15 0 8 -7 15 -15 15 -10 0 -15 10 -15 30 0 20 -5 30 -15 30 -8 0
-15 7 -15 15 0 8 -7 15 -15 15 -8 0 -15 7 -15 15 0 8 -7 15 -15 15 -8 0 -15 7
-15 15 0 10 -10 15 -30 15 -20 0 -30 5 -30 15 0 8 -7 15 -15 15 -8 0 -15 7
-15 15 0 10 -10 15 -30 15 -20 0 -30 5 -30 15 0 10 -10 15 -30 15 -20 0 -30 5
-30 15 0 10 -10 15 -30 15 -20 0 -30 5 -30 15 0 8 -7 15 -15 15 -8 0 -15 7
-15 15 0 10 -10 15 -30 15 -20 0 -30 5 -30 15 0 10 -10 15 -30 15 -20 0 -30 5
-30 15 0 10 -10 15 -30 15 -20 0 -30 5 -30 15 0 10 -10 15 -30 15 -20 0 -30 5
-30 15 0 8 -7 15 -15 15 -8 0 -15 7 -15 15 0 10 -10 15 -30 15 -20 0 -30 5
-30 15 0 10 -10 15 -30 15 -20 0 -30 5 -30 15 0 10 -10 15 -30 15 -20 0 -30 5
-30 15 0 8 -7 15 -15 15 -8 0 -15 7 -15 15 0 10 -10 15 -30 15 -20 0 -30 5
-30 15 0 10 -10 15 -30 15 -20 0 -30 5 -30 15 0 10 -10 15 -30 15 -20 0 -30 5
-30 15 0 8 -7 15 -15 15 -8 0 -15 7 -15 15 0 10 -10 15 -30 15 -16 0 -30 5
-30 10 0 7 -202 10 -585 10 -383 0 -585 -3 -585 -10z m5790 -3025 c0 -10 10
-15 30 -15 20 0 30 -5 30 -15 0 -10 10 -15 30 -15 20 0 30 -5 30 -15 0 -10 10
-15 30 -15 20 0 30 -5 30 -15 0 -10 10 -15 30 -15 20 0 30 -5 30 -15 0 -8 7
-15 15 -15 8 0 15 -7 15 -15 0 -8 7 -15 15 -15 12 0 15 -13 15 -60 0 -47 -3
-60 -15 -60 -12 0 -15 -13 -15 -60 0 -47 -3 -60 -15 -60 -10 0 -15 -10 -15
-30 0 -20 -5 -30 -15 -30 -8 0 -15 -7 -15 -15 0 -8 -7 -15 -15 -15 -8 0 -15
-7 -15 -15 0 -8 -7 -15 -15 -15 -10 0 -15 -10 -15 -30 0 -20 -5 -30 -15 -30
-8 0 -15 -7 -15 -15 0 -8 -7 -15 -15 -15 -10 0 -15 -10 -15 -30 0 -20 -5 -30
-15 -30 -8 0 -15 -7 -15 -15 0 -8 -7 -15 -15 -15 -8 0 -15 -7 -15 -15 0 -8 -7
-15 -15 -15 -10 0 -15 -10 -15 -30 0 -20 -5 -30 -15 -30 -8 0 -15 -7 -15 -15
0 -8 -7 -15 -15 -15 -8 0 -15 -7 -15 -15 0 -8 -7 -15 -15 -15 -10 0 -15 -10
-15 -30 0 -20 -5 -30 -15 -30 -8 0 -15 -7 -15 -15 0 -8 -7 -15 -15 -15 -8 0
-15 -7 -15 -15 0 -8 -7 -15 -15 -15 -8 0 -15 -7 -15 -15 0 -8 -7 -15 -15 -15
-10 0 -15 -10 -15 -30 0 -20 -5 -30 -15 -30 -8 0 -15 -7 -15 -15 0 -8 -7 -15
-15 -15 -10 0 -15 10 -15 30 0 20 5 30 15 30 12 0 15 15 15 75 0 60 3 75 15
75 10 0 15 10 15 30 0 20 5 30 15 30 12 0 15 15 15 75 0 60 3 75 15 75 11 0
15 12 15 45 0 33 4 45 15 45 11 0 15 12 15 45 0 33 4 45 15 45 10 0 15 10 15
30 0 20 5 30 15 30 12 0 15 13 15 60 0 47 3 60 15 60 13 0 15 25 15 165 0 140
2 165 15 165 8 0 15 -7 15 -15z m-990 -3690 c0 -8 7 -15 15 -15 10 0 15 -10
15 -30 0 -20 5 -30 15 -30 10 0 15 -10 15 -30 0 -20 5 -30 15 -30 8 0 15 -7
15 -15 0 -8 7 -15 15 -15 11 0 15 -12 15 -45 0 -33 4 -45 15 -45 10 0 15 -10
15 -30 0 -20 5 -30 15 -30 11 0 15 -12 15 -45 0 -33 4 -45 15 -45 11 0 15 -12
15 -45 0 -33 4 -45 15 -45 10 0 15 -10 15 -30 0 -20 5 -30 15 -30 8 0 15 -7
15 -15 0 -8 7 -15 15 -15 10 0 15 -10 15 -30 0 -20 5 -30 15 -30 10 0 15 -10
15 -30 0 -20 5 -30 15 -30 11 0 15 -12 15 -45 0 -33 4 -45 15 -45 10 0 15 -10
15 -30 0 -20 5 -30 15 -30 11 0 15 -12 15 -45 0 -33 4 -45 15 -45 11 0 15 -12
15 -45 0 -33 4 -45 15 -45 11 0 15 -12 15 -45 0 -33 4 -45 15 -45 11 0 15 -12
15 -45 0 -33 4 -45 15 -45 11 0 15 -12 15 -45 0 -33 4 -45 15 -45 12 0 15 -13
15 -60 0 -47 3 -60 15 -60 10 0 15 -10 15 -30 0 -20 5 -30 15 -30 11 0 15 -12
15 -45 0 -33 4 -45 15 -45 12 0 15 -13 15 -60 0 -47 3 -60 15 -60 12 0 15 -13
15 -60 0 -47 3 -60 15 -60 11 0 15 -12 15 -45 0 -33 4 -45 15 -45 11 0 15 -12
15 -45 0 -33 4 -45 15 -45 11 0 15 -12 15 -45 0 -33 4 -45 15 -45 11 0 15 -12
15 -45 0 -33 4 -45 15 -45 11 0 15 -12 15 -45 0 -33 4 -45 15 -45 11 0 15 -12
15 -45 0 -33 4 -45 15 -45 10 0 15 -10 15 -30 0 -20 5 -30 15 -30 11 0 15 -12
15 -45 0 -33 4 -45 15 -45 11 0 15 -12 15 -45 0 -33 4 -45 15 -45 10 0 15 -10
15 -30 0 -20 5 -30 15 -30 12 0 15 -15 15 -75 0 -60 3 -75 15 -75 12 0 15 -15
15 -75 0 -60 3 -75 15 -75 12 0 15 -15 15 -75 0 -60 3 -75 15 -75 12 0 15 -15
15 -75 0 -60 3 -75 15 -75 10 0 15 -10 15 -30 0 -20 5 -30 15 -30 12 0 15 -13
15 -60 0 -47 3 -60 15 -60 12 0 15 -17 15 -90 0 -73 3 -90 15 -90 13 0 15 -23
15 -150 0 -127 2 -150 15 -150 12 0 15 -13 15 -60 0 -47 3 -60 15 -60 11 0 15
-12 15 -45 0 -33 4 -45 15 -45 10 0 15 -10 15 -30 0 -20 5 -30 15 -30 10 0 15
-10 15 -30 0 -20 5 -30 15 -30 10 0 15 -10 15 -30 0 -20 5 -30 15 -30 11 0 15
-12 15 -45 0 -33 4 -45 15 -45 10 0 15 -10 15 -30 0 -20 5 -30 15 -30 11 0 15
-12 15 -45 0 -33 4 -45 15 -45 11 0 15 -12 15 -45 0 -33 4 -45 15 -45 11 0 15
-12 15 -45 0 -33 4 -45 15 -45 10 0 15 -10 15 -30 0 -20 5 -30 15 -30 8 0 15
-7 15 -15 0 -8 7 -15 15 -15 11 0 15 -12 15 -45 l0 -45 -405 0 c-353 0 -405
-2 -405 -15 0 -13 -75 -15 -615 -15 -540 0 -615 2 -615 15 0 12 -17 15 -90 15
-73 0 -90 3 -90 15 0 13 -63 15 -510 15 -447 0 -510 2 -510 15 0 8 -7 15 -15
15 -8 0 -15 7 -15 15 0 8 -7 15 -15 15 -8 0 -15 7 -15 15 0 8 -7 15 -15 15 -8
0 -15 7 -15 15 0 8 -7 15 -15 15 -8 0 -15 7 -15 15 0 8 -7 15 -15 15 -8 0 -15
7 -15 15 0 8 -7 15 -15 15 -8 0 -15 7 -15 15 0 8 -7 15 -15 15 -8 0 -15 7 -15
15 0 8 -7 15 -15 15 -8 0 -15 7 -15 15 0 8 -7 15 -15 15 -11 0 -15 12 -15 45
0 33 -4 45 -15 45 -12 0 -15 15 -15 75 0 60 3 75 15 75 8 0 15 7 15 15 0 8 7
15 15 15 10 0 15 10 15 30 0 20 5 30 15 30 10 0 15 10 15 30 0 20 5 30 15 30
10 0 15 10 15 30 0 20 5 30 15 30 10 0 15 10 15 30 0 20 5 30 15 30 10 0 15
10 15 30 0 20 5 30 15 30 10 0 15 10 15 30 0 20 5 30 15 30 10 0 15 10 15 30
0 20 5 30 15 30 10 0 15 10 15 30 0 20 5 30 15 30 11 0 15 12 15 45 0 33 4 45
15 45 10 0 15 10 15 30 0 20 5 30 15 30 11 0 15 12 15 45 0 33 4 45 15 45 10
0 15 10 15 30 0 20 5 30 15 30 8 0 15 7 15 15 0 8 7 15 15 15 11 0 15 12 15
45 0 33 4 45 15 45 10 0 15 10 15 30 0 20 5 30 15 30 10 0 15 10 15 30 0 20 5
30 15 30 11 0 15 12 15 45 0 33 4 45 15 45 10 0 15 10 15 30 0 20 5 30 15 30
10 0 15 10 15 30 0 20 5 30 15 30 10 0 15 10 15 30 0 20 5 30 15 30 11 0 15
12 15 45 0 33 4 45 15 45 12 0 15 17 15 90 0 73 3 90 15 90 10 0 15 10 15 30
0 20 5 30 15 30 12 0 15 13 15 60 0 47 3 60 15 60 11 0 15 12 15 45 0 33 4 45
15 45 11 0 15 12 15 45 0 33 4 45 15 45 11 0 15 12 15 45 0 33 4 45 15 45 11
0 15 12 15 45 0 33 4 45 15 45 10 0 15 10 15 30 0 20 5 30 15 30 10 0 15 10
15 30 0 20 5 30 15 30 11 0 15 12 15 45 0 33 4 45 15 45 11 0 15 12 15 45 0
33 4 45 15 45 10 0 15 10 15 30 0 20 5 30 15 30 10 0 15 10 15 30 0 20 5 30
15 30 10 0 15 10 15 30 0 20 5 30 15 30 11 0 15 12 15 45 0 33 4 45 15 45 10
0 15 10 15 30 0 20 5 30 15 30 10 0 15 10 15 30 0 20 5 30 15 30 10 0 15 10
15 30 0 20 5 30 15 30 10 0 15 10 15 30 0 20 5 30 15 30 10 0 15 10 15 30 0
20 5 30 15 30 11 0 15 12 15 45 0 33 4 45 15 45 10 0 15 10 15 30 0 20 5 30
15 30 10 0 15 10 15 30 0 20 5 30 15 30 10 0 15 10 15 30 0 20 5 30 15 30 10
0 15 10 15 30 0 20 5 30 15 30 11 0 15 12 15 45 0 33 4 45 15 45 10 0 15 10
15 30 0 20 5 30 15 30 10 0 15 10 15 30 0 20 5 30 15 30 10 0 15 10 15 30 0
20 5 30 15 30 10 0 15 10 15 30 0 20 5 30 15 30 11 0 15 12 15 45 0 33 4 45
15 45 10 0 15 10 15 30 0 20 5 30 15 30 11 0 15 12 15 45 0 33 4 45 15 45 11
0 15 12 15 45 0 33 4 45 15 45 12 0 15 13 15 60 0 47 3 60 15 60 8 0 15 7 15
15 0 8 7 15 15 15 10 0 15 10 15 30 0 20 5 30 15 30 10 0 15 10 15 30 0 20 5
30 15 30 8 0 15 7 15 15 0 8 7 15 15 15 10 0 15 10 15 30 0 20 5 30 15 30 8 0
15 7 15 15 0 8 7 15 15 15 8 0 15 -7 15 -15z"/></g></svg></svg>